<svg width="205" height="48" viewBox="0 0 205 48" fill="none" xmlns="http://www.w3.org/2000/svg">
<path d="M95.0318 23.032C94.9678 24.088 94.6478 24.808 94.0718 25.192C93.5278 25.576 92.9358 25.768 92.2958 25.768C92.0398 25.768 91.6878 25.704 91.2398 25.576C90.7918 25.448 90.3918 25.224 90.0398 24.904C89.7198 24.552 89.5598 24.056 89.5598 23.416C89.5598 23.288 89.4638 23.064 89.2718 22.744C89.0798 22.392 88.7438 22.072 88.2638 21.784C87.8158 21.496 87.1918 21.352 86.3918 21.352C85.8478 21.352 85.3038 21.448 84.7598 21.64C84.2158 21.832 83.7678 22.104 83.4158 22.456C83.0638 22.808 82.8878 23.224 82.8878 23.704C82.8878 24.28 83.1598 24.808 83.7038 25.288C84.2478 25.768 84.9358 26.216 85.7678 26.632C86.5998 27.048 87.4478 27.48 88.3118 27.928C89.4638 28.472 90.4558 29.112 91.2878 29.848C92.1518 30.552 92.8238 31.384 93.3038 32.344C93.7838 33.272 94.0238 34.36 94.0238 35.608C94.0238 37.176 93.5438 38.6 92.5838 39.88C91.6238 41.128 90.3758 42.12 88.8398 42.856C87.3358 43.592 85.7358 43.96 84.0398 43.96C83.1758 43.96 82.2478 43.864 81.2558 43.672C80.2958 43.512 79.3838 43.256 78.5198 42.904C77.6558 42.52 76.9198 42.008 76.3118 41.368C75.8958 40.92 75.5758 40.472 75.3518 40.024C75.1278 39.544 75.0158 39.016 75.0158 38.44C75.0158 37.64 75.3038 37.016 75.8798 36.568C76.4558 36.12 77.0638 35.896 77.7038 35.896C78.2798 35.896 78.7438 36.008 79.0958 36.232C79.4798 36.424 79.7998 36.664 80.0558 36.952C80.4718 37.4 81.0158 37.8 81.6878 38.152C82.3598 38.504 83.1598 38.68 84.0878 38.68C84.9198 38.68 85.5758 38.552 86.0558 38.296C86.5678 38.008 86.9358 37.672 87.1598 37.288C87.3838 36.904 87.4958 36.552 87.4958 36.232C87.4958 35.688 87.3198 35.208 86.9678 34.792C86.6478 34.376 86.1838 33.992 85.5758 33.64C84.9998 33.288 84.3118 32.936 83.5118 32.584C82.3918 32.104 81.2878 31.528 80.1998 30.856C79.1118 30.152 78.2158 29.288 77.5118 28.264C76.8078 27.208 76.4558 25.912 76.4558 24.376C76.4558 22.808 76.9198 21.432 77.8478 20.248C78.8078 19.064 80.0558 18.136 81.5918 17.464C83.1278 16.792 84.7598 16.456 86.4878 16.456C87.9278 16.456 89.3198 16.712 90.6638 17.224C92.0078 17.736 93.0958 18.488 93.9278 19.48C94.7598 20.44 95.1278 21.624 95.0318 23.032ZM100.925 6.184C100.989 5.288 101.341 4.664 101.981 4.312C102.621 3.96 103.325 3.784 104.093 3.784C104.637 3.784 105.149 3.864 105.629 4.024C106.141 4.184 106.557 4.456 106.877 4.84C107.197 5.224 107.325 5.752 107.261 6.424C107.229 7.032 107.165 7.784 107.069 8.68C107.005 9.576 106.941 10.52 106.877 11.512C106.813 12.472 106.749 13.4 106.685 14.296C106.461 18.936 106.301 23.416 106.205 27.736C106.109 32.056 106.093 36.424 106.157 40.84C106.189 41.704 105.901 42.328 105.293 42.712C104.685 43.064 103.981 43.24 103.181 43.24C102.669 43.24 102.141 43.16 101.597 43C101.085 42.84 100.653 42.568 100.301 42.184C99.9809 41.768 99.8049 41.224 99.7729 40.552C99.7729 36.424 99.8209 32.424 99.9169 28.552C100.045 24.68 100.189 20.888 100.349 17.176C100.541 13.432 100.733 9.768 100.925 6.184ZM114.004 18.424C114.132 17.752 114.468 17.272 115.012 16.984C115.588 16.664 116.26 16.504 117.028 16.504C118.02 16.504 118.836 16.744 119.476 17.224C120.116 17.704 120.372 18.488 120.244 19.576C119.988 21.752 119.796 23.8 119.668 25.72C119.572 27.64 119.508 29.464 119.476 31.192C119.444 32.92 119.396 34.6 119.332 36.232C119.3 37.832 119.236 39.4 119.14 40.936C119.076 41.896 118.772 42.584 118.228 43C117.684 43.448 116.948 43.672 116.02 43.672C114.804 43.672 113.924 43.416 113.38 42.904C112.868 42.392 112.644 41.592 112.708 40.504C112.772 39.832 112.82 38.84 112.852 37.528C112.884 36.184 112.916 34.664 112.948 32.968C113.012 31.272 113.076 29.512 113.14 27.688C113.236 25.864 113.348 24.152 113.476 22.552C113.604 20.92 113.78 19.544 114.004 18.424ZM113.188 7.96C113.188 7 113.54 6.152 114.244 5.416C114.948 4.68 115.956 4.312 117.268 4.312C118.452 4.312 119.412 4.664 120.148 5.368C120.884 6.072 121.252 7.016 121.252 8.2C121.252 8.872 121.076 9.496 120.724 10.072C120.372 10.616 119.924 11.064 119.38 11.416C118.836 11.736 118.228 11.896 117.556 11.896C116.116 11.896 115.028 11.544 114.292 10.84C113.556 10.136 113.188 9.176 113.188 7.96ZM143.673 5.512C143.737 4.584 144.057 3.944 144.633 3.592C145.209 3.208 145.929 3.016 146.793 3.016C147.945 3.016 148.841 3.208 149.481 3.592C150.121 3.976 150.393 4.68 150.297 5.704C149.913 11.432 149.593 17.304 149.337 23.32C149.081 29.336 148.809 35.272 148.521 41.128C148.521 41.992 148.153 42.616 147.417 43C146.713 43.384 145.929 43.576 145.065 43.576C144.137 43.576 143.401 43.384 142.857 43C142.313 42.584 142.057 42.072 142.089 41.464C142.089 41.112 142.105 40.776 142.137 40.456C142.169 40.136 142.201 39.784 142.233 39.4C142.265 39.016 142.297 38.568 142.329 38.056C141.689 39.272 140.921 40.28 140.025 41.08C139.161 41.88 138.217 42.488 137.193 42.904C136.201 43.288 135.161 43.48 134.073 43.48C132.505 43.48 131.161 43.128 130.041 42.424C128.921 41.688 128.009 40.744 127.305 39.592C126.601 38.408 126.073 37.128 125.721 35.752C125.401 34.376 125.241 33.048 125.241 31.768C125.241 29.88 125.529 28.04 126.105 26.248C126.713 24.424 127.561 22.792 128.649 21.352C129.737 19.88 131.017 18.728 132.489 17.896C133.993 17.032 135.657 16.6 137.481 16.6C138.377 16.6 139.273 16.712 140.169 16.936C141.065 17.16 141.961 17.528 142.857 18.04C142.953 16.568 143.033 15.112 143.097 13.672C143.193 12.232 143.289 10.824 143.385 9.448C143.481 8.072 143.577 6.76 143.673 5.512ZM132.105 31.624C132.105 32.648 132.233 33.64 132.489 34.6C132.745 35.56 133.113 36.344 133.593 36.952C134.105 37.528 134.729 37.816 135.465 37.816C136.297 37.816 137.065 37.512 137.769 36.904C138.505 36.296 139.161 35.544 139.737 34.648C140.313 33.72 140.777 32.744 141.129 31.72C141.481 30.696 141.689 29.768 141.753 28.936C141.785 28.776 141.833 28.632 141.897 28.504C141.961 28.344 142.073 28.2 142.233 28.072L142.473 23.464C141.801 22.92 141.129 22.536 140.457 22.312C139.785 22.088 139.113 21.976 138.441 21.976C137.449 21.976 136.457 22.344 135.465 23.08C134.505 23.784 133.705 24.856 133.065 26.296C132.425 27.736 132.105 29.512 132.105 31.624ZM165.923 43.096C163.875 43.096 162.099 42.744 160.595 42.04C159.091 41.304 157.843 40.344 156.851 39.16C155.891 37.944 155.171 36.584 154.691 35.08C154.211 33.576 153.971 32.056 153.971 30.52C153.971 28.856 154.291 27.208 154.931 25.576C155.603 23.944 156.531 22.456 157.715 21.112C158.899 19.736 160.291 18.648 161.891 17.848C163.523 17.016 165.299 16.6 167.219 16.6C168.851 16.6 170.243 16.888 171.395 17.464C172.547 18.008 173.427 18.776 174.035 19.768C174.643 20.76 174.947 21.944 174.947 23.32C174.947 24.76 174.611 26.072 173.939 27.256C173.299 28.408 172.387 29.368 171.203 30.136C169.699 31.16 168.067 31.896 166.307 32.344C164.579 32.792 162.739 33.08 160.787 33.208C161.075 33.944 161.459 34.664 161.939 35.368C162.419 36.04 163.027 36.6 163.763 37.048C164.531 37.464 165.427 37.672 166.451 37.672C167.603 37.672 168.659 37.384 169.619 36.808C170.579 36.2 171.427 35.496 172.163 34.696C172.483 34.344 172.771 34.12 173.027 34.024C173.315 33.896 173.571 33.832 173.795 33.832C174.211 33.832 174.611 33.976 174.995 34.264C175.411 34.52 175.763 34.856 176.051 35.272C176.371 35.656 176.563 36.072 176.627 36.52C176.691 36.904 176.643 37.288 176.483 37.672C176.323 38.024 176.131 38.312 175.907 38.536C174.723 39.816 173.267 40.904 171.539 41.8C169.843 42.664 167.971 43.096 165.923 43.096ZM160.499 28.408C161.523 28.344 162.403 28.264 163.139 28.168C163.875 28.04 164.707 27.784 165.635 27.4C166.499 27.048 167.251 26.536 167.891 25.864C168.531 25.192 168.851 24.392 168.851 23.464C168.851 23.112 168.771 22.792 168.611 22.504C168.451 22.184 168.195 21.928 167.843 21.736C167.523 21.544 167.107 21.448 166.595 21.448C165.827 21.448 165.091 21.672 164.387 22.12C163.715 22.568 163.107 23.144 162.563 23.848C162.019 24.552 161.571 25.304 161.219 26.104C160.867 26.904 160.627 27.672 160.499 28.408Z" fill="#1E2939"/>
<path d="M179.318 19.816C179.126 19.464 179.03 19.128 179.03 18.808C179.03 18.36 179.158 17.976 179.414 17.656C179.702 17.336 180.038 17.096 180.422 16.936C180.838 16.744 181.254 16.616 181.67 16.552C182.086 16.488 182.47 16.456 182.822 16.456C183.59 16.456 184.15 16.568 184.502 16.792C184.886 17.016 185.158 17.288 185.318 17.608C186.47 19.336 187.766 21.144 189.206 23.032C190.646 24.888 192.134 26.776 193.67 28.696C195.206 30.584 196.726 32.456 198.23 34.312C199.734 36.136 201.11 37.864 202.358 39.496C202.55 39.72 202.71 39.96 202.838 40.216C202.998 40.472 203.078 40.728 203.078 40.984C203.078 41.432 202.854 41.848 202.406 42.232C201.99 42.584 201.446 42.872 200.774 43.096C200.134 43.32 199.462 43.416 198.758 43.384C198.31 43.352 197.926 43.224 197.606 43C197.286 42.776 196.998 42.488 196.742 42.136C195.91 41.016 195.062 39.928 194.198 38.872C193.366 37.784 192.518 36.728 191.654 35.704C190.822 34.648 189.974 33.624 189.11 32.632C188.278 31.608 187.43 30.584 186.566 29.56C185.734 28.504 184.902 27.448 184.07 26.392C183.27 25.336 182.47 24.264 181.67 23.176C180.87 22.088 180.086 20.968 179.318 19.816ZM184.166 42.616C183.814 43.064 183.414 43.368 182.966 43.528C182.55 43.688 182.198 43.768 181.91 43.768C181.238 43.768 180.614 43.64 180.038 43.384C179.462 43.128 178.998 42.792 178.646 42.376C178.326 41.96 178.166 41.544 178.166 41.128C178.166 40.904 178.214 40.696 178.31 40.504C178.438 40.28 178.582 40.056 178.742 39.832C180.726 37.528 182.758 35.16 184.838 32.728C186.918 30.264 189.014 27.784 191.126 25.288C193.238 22.76 195.35 20.264 197.462 17.8C197.782 17.416 198.07 17.144 198.326 16.984C198.614 16.792 198.934 16.68 199.286 16.648C200.118 16.584 200.838 16.696 201.446 16.984C202.054 17.272 202.518 17.624 202.838 18.04C203.158 18.456 203.318 18.84 203.318 19.192C203.318 19.512 203.222 19.832 203.03 20.152C202.87 20.472 202.694 20.728 202.502 20.92C199.238 24.6 196.118 28.264 193.142 31.912C190.166 35.528 187.174 39.096 184.166 42.616Z" fill="#1E2939"/>
<rect x="26.1562" width="30.6758" height="36.9914" rx="4" transform="rotate(45 26.1562 0)" fill="#D1D5DC"/>
<rect x="45.1562" width="30.6758" height="36.9914" rx="4" transform="rotate(45 45.1562 0)" fill="#1D293D"/>
</svg>
